<mxfile host="app.diagrams.net" modified="2024-01-14T12:37:23.926Z" agent="Mozilla/5.0 (Windows NT 10.0; Win64; x64) AppleWebKit/537.36 (KHTML, like Gecko) Chrome/120.0.0.0 Safari/537.36 Edg/120.0.0.0" etag="igCttzsBwn5zRFUxW-rs" version="22.1.18" type="github">
  <diagram id="prtHgNgQTEPvFCAcTncT" name="Page-1">
    <mxGraphModel dx="1554" dy="831" grid="1" gridSize="10" guides="1" tooltips="1" connect="1" arrows="1" fold="1" page="1" pageScale="1" pageWidth="827" pageHeight="1169" math="0" shadow="0">
      <root>
        <mxCell id="0" />
        <mxCell id="1" parent="0" />
        <mxCell id="AKc9pMjTOJnopstTfpm2-2" value="" style="ellipse;whiteSpace=wrap;html=1;aspect=fixed;fillColor=#d5e8d4;strokeColor=#82b366;" vertex="1" parent="1">
          <mxGeometry x="394" y="20" width="40" height="40" as="geometry" />
        </mxCell>
        <mxCell id="AKc9pMjTOJnopstTfpm2-3" value="" style="endArrow=classic;html=1;rounded=0;exitX=0.5;exitY=1;exitDx=0;exitDy=0;" edge="1" parent="1" source="AKc9pMjTOJnopstTfpm2-2">
          <mxGeometry width="50" height="50" relative="1" as="geometry">
            <mxPoint x="390" y="260" as="sourcePoint" />
            <mxPoint x="414" y="120" as="targetPoint" />
          </mxGeometry>
        </mxCell>
        <mxCell id="AKc9pMjTOJnopstTfpm2-4" value="Форма выбора пиццы" style="rounded=0;whiteSpace=wrap;html=1;" vertex="1" parent="1">
          <mxGeometry x="339" y="120" width="150" height="30" as="geometry" />
        </mxCell>
        <mxCell id="AKc9pMjTOJnopstTfpm2-5" value="Форма с номером заказа" style="rounded=0;whiteSpace=wrap;html=1;" vertex="1" parent="1">
          <mxGeometry x="590" y="230" width="150" height="30" as="geometry" />
        </mxCell>
        <mxCell id="AKc9pMjTOJnopstTfpm2-6" value="Форма подтверждения заказа" style="rounded=0;whiteSpace=wrap;html=1;" vertex="1" parent="1">
          <mxGeometry x="350" y="470" width="150" height="30" as="geometry" />
        </mxCell>
        <mxCell id="AKc9pMjTOJnopstTfpm2-7" value="Форма оформления заказа" style="rounded=0;whiteSpace=wrap;html=1;" vertex="1" parent="1">
          <mxGeometry x="10" y="210" width="150" height="30" as="geometry" />
        </mxCell>
      </root>
    </mxGraphModel>
  </diagram>
</mxfile>
